<svg width="5" height="7" viewBox="0 0 5 7" fill="none" xmlns="http://www.w3.org/2000/svg">
<path d="M0.572741 6.2189C0.580115 6.39501 0.725039 6.534 0.901283 6.534H3.97109C4.14734 6.534 4.29226 6.39501 4.29963 6.2189L4.51886 1.591H0.353516L0.572741 6.2189ZM3.13061 2.74049C3.13061 2.66675 3.19041 2.60694 3.26418 2.60694H3.47781C3.55153 2.60694 3.61137 2.66673 3.61137 2.74049V5.38451C3.61137 5.45827 3.55158 5.51807 3.47781 5.51807H3.26418C3.19044 5.51807 3.13061 5.4583 3.13061 5.38451V2.74049ZM2.19582 2.74049C2.19582 2.66675 2.25562 2.60694 2.32937 2.60694H2.543C2.61673 2.60694 2.67655 2.66673 2.67655 2.74049V5.38451C2.67655 5.45827 2.61677 5.51807 2.543 5.51807H2.32937C2.25563 5.51807 2.19582 5.4583 2.19582 5.38451V2.74049ZM1.261 2.74049C1.261 2.66675 1.32079 2.60694 1.39455 2.60694H1.60819C1.68194 2.60694 1.74174 2.66673 1.74174 2.74049V5.38451C1.74174 5.45827 1.68195 5.51807 1.60819 5.51807H1.39455C1.32081 5.51807 1.261 5.4583 1.261 5.38451V2.74049Z" fill="#CA0A0A"/>
<path d="M4.66365 0.336604H3.24744V0.0688628C3.24744 0.0308403 3.21662 0 3.17858 0H1.69142C1.6534 0 1.62257 0.0308403 1.62257 0.0688628V0.336588H0.206348C0.092377 0.336588 0 0.428981 0 0.542952V1.19122H4.87V0.542968C4.87 0.428997 4.77762 0.336604 4.66365 0.336604Z" fill="#CA0A0A"/>
</svg>
